<?xml version="1.0" encoding="utf-8"?>
<!-- Generator: Adobe Illustrator 25.1.0, SVG Export Plug-In . SVG Version: 6.00 Build 0)  -->
<svg version="1.1" id="flat" xmlns="http://www.w3.org/2000/svg" xmlns:xlink="http://www.w3.org/1999/xlink" x="0px" y="0px"
	 viewBox="0 0 512 512" style="enable-background:new 0 0 512 512;" xml:space="preserve">
<style type="text/css">
	.st0{fill:#93AD10;}
	.st1{fill:#A2BA18;}
	.st2{fill:#B9CD2A;}
	.st3{fill:#ACC221;}
	.st4{fill:#545E94;}
	.st5{fill:#5D68A3;}
	.st6{fill:#6C78B8;}
	.st7{fill:#49538C;}
	.st8{fill:#3F498A;}
</style>
<g>
	<rect x="161.1" y="172.3" class="st0" width="176.5" height="153.5"/>
	<path class="st1" d="M224,112v96h40c48.6,0,88-39.4,88-88V24h-40C263.4,24,224,63.4,224,112z"/>
	<path class="st2" d="M288,200v16h96c53,0,96-43,96-96v0v-16h-96C331,104,288,147,288,200L288,200z"/>
	<path class="st3" d="M288,205.4V216h12.1l35.1-30.7c12.7-11.2,29.1-17.3,46-17.3c19.1,0,37.6-6.4,52.7-18.1l46-35.8V104h-13
		l-42.8,33.3c-12.3,9.5-27.4,14.7-42.9,14.7c-20.8,0-40.9,7.6-56.6,21.2L288,205.4z"/>
	<path class="st0" d="M224,196v12h10.7l44-49.5C289.9,146,296,129.8,296,113c0-13.9,5.5-27.3,15.4-37.1L352,35.3V24h-11.3L300,64.6
		C287.2,77.5,280,94.9,280,113c0,12.8-4.7,25.2-13.2,34.8L224,196z"/>
	<circle class="st4" cx="352" cy="304" r="104"/>
	<circle class="st5" cx="152" cy="208" r="120"/>
	<circle class="st6" cx="144" cy="368" r="120"/>
	<path class="st7" d="M170.2,162.9l9.2,12.3c2.8,3.7,2,9-1.7,11.8c-1.8,1.4-4.2,2-6.4,1.6l-24.2-4c-2-0.3-4,0.1-5.7,1.1l-15.9,9.5
		c-4,2.4-9.2,1.1-11.6-2.9c-1.4-2.3-1.6-5-0.6-7.5l5.2-12.9c1-2.4,0.8-5.2-0.6-7.5l-9-15c-2.4-4-1.1-9.2,2.9-11.6
		c2.3-1.4,5-1.6,7.5-0.6l12.2,4.9c2.8,1.1,6,0.7,8.4-1.2l19-15.2c3.6-2.9,8.9-2.3,11.8,1.3c1.5,1.9,2.1,4.3,1.7,6.7l-3.8,22.7
		C168.2,158.7,168.8,161,170.2,162.9z"/>
	<path class="st8" d="M355.9,239.7l11,22c0.7,1.5,2,2.6,3.6,3.1l9.5,3.2c3.3,1.1,5,4.6,3.9,7.9c-0.4,1.3-1.3,2.4-2.4,3.2l-10.7,7.1
		c-1.7,1.2-2.8,3.1-2.8,5.2v16.2c0,3.4-2.8,6.2-6.2,6.2c-1.3,0-2.7-0.4-3.7-1.2l-19-14.2c-1.9-1.4-4.4-1.6-6.5-0.6l-16.5,8.2
		c-3.1,1.5-6.8,0.3-8.3-2.8c-0.7-1.3-0.8-2.8-0.5-4.3l4.1-16.2c0.4-1.7,0.1-3.5-0.9-5l-8-12c-1.9-2.9-1.1-6.7,1.7-8.6
		c1-0.7,2.2-1,3.4-1h17.8c1.6,0,3.2-0.7,4.4-1.8l16.1-16.1c2.4-2.4,6.4-2.4,8.8,0C355.2,238.6,355.6,239.1,355.9,239.7z"/>
	<path class="st4" d="M142.1,344H123c-1.9,0-3.6-0.9-4.8-2.4l-16.4-21.9c-2-2.6-5.7-3.2-8.3-1.2c-0.7,0.6-1.3,1.3-1.8,2.1
		l-10.5,20.9c-0.8,1.6-2.2,2.7-3.9,3.1l-19.1,4.8c-3.2,0.8-5.1,4-4.3,7.2c0.3,1,0.8,2,1.6,2.8l14.8,14.8c1.1,1.1,1.7,2.6,1.7,4.2
		v23.1c0,3.3,2.7,6,6,6c1.6,0,3.1-0.6,4.2-1.7l18.5-18.5c1.9-1.9,4.9-2.3,7.3-0.9l20.8,12.5c2.8,1.7,6.5,0.8,8.2-2
		c1-1.6,1.1-3.6,0.4-5.3l-7.7-19.3c-1-2.5-0.2-5.4,2-7l14-10.5c2.6-2,3.2-5.7,1.2-8.3C145.8,344.9,144,344,142.1,344L142.1,344z"/>
</g>
</svg>
