<svg xmlns="http://www.w3.org/2000/svg" viewBox="0 0 703.15 703.15"><defs><style>.cls-1{fill:#010a33;}.cls-2,.cls-4{fill:#3b9158;}.cls-2{stroke:#3b9158;stroke-miterlimit:10;}.cls-3{fill:#57cf7e;}.cls-5{fill:#5368e6;}.cls-6{fill:#283380;}.cls-7{fill:#1e2240;}</style></defs><g id="Modern"><g id="Layer_11" data-name="Layer 11"><g id="Layer_12" data-name="Layer 12"><circle class="cls-1" cx="351.58" cy="351.58" r="343.34"/><path class="cls-2" d="M288.51,60.28C408.46,108.94,510,405.7,393.25,440.06S164.52,204.19,288.51,60.28Z"/><path class="cls-3" d="M317.68,142.89a668.6,668.6,0,0,1,31,96.37,662.86,662.86,0,0,1,16.16,102c1.36,17.35,2.07,34.86,2,52.46s-.83,35.29-2.32,53-3.64,35.49-6.68,53.18-6.72,35.37-11.11,53l-99.23-38.41q11.19-20,21-41.11c6.54-14,12.35-28.45,17.72-43.14s10.13-29.7,14.31-45,7.71-30.8,10.67-46.54a623.62,623.62,0,0,0,10.28-96.54,654.07,654.07,0,0,0-4.76-99Z"/><path class="cls-3" d="M54.68,97.4c129-10.78,413.37,126.2,265,291.48S9.08,281.8,54.68,97.4Z"/><path class="cls-4" d="M113.46,216.25a518.62,518.62,0,0,0,67,88c25.18,26.45,53.15,49.76,83.33,68s62.55,31.32,95.36,37.36a240.43,240.43,0,0,0,49.15,4,249.9,249.9,0,0,0,48.18-5.8l9.37,79.42a324.72,324.72,0,0,1-63.14-3.74,307.23,307.23,0,0,1-60.34-16.06,320.45,320.45,0,0,1-54.78-27.08,355.92,355.92,0,0,1-47.89-35.59c-29.58-26-54.48-55.91-75.49-87.67a530.07,530.07,0,0,1-51.67-100.41Z"/><path class="cls-5" d="M639.44,414.71c0,132.13-111,239.25-247.9,239.25a254.28,254.28,0,0,1-107.43-23.58C201,591.75,143.66,509.69,143.66,414.71c0-132.14,111-239.25,247.88-239.25,120.26,0,220.51,82.63,243.12,192.28A231.77,231.77,0,0,1,639.44,414.71Z"/><path class="cls-6" d="M639.44,414.71c0,132.13-111,239.25-247.9,239.25a254.28,254.28,0,0,1-107.43-23.58c78.47,4.32,169.87-2.56,265.66-91,48.9-45.12,81.33-105.22,84.89-171.69A231.77,231.77,0,0,1,639.44,414.71Z"/><path class="cls-7" d="M449.51,340.07s-17.5-31.58,1.95-45.73,54.45,4.44,54.45,4.44-47.37-42.46-76.12-18C407.05,300.05,449.51,340.07,449.51,340.07Z"/><path class="cls-6" d="M582.78,315.07S512.85,295.51,514,244.9c-37.61,13.89-68.62-7.7-101.93-48.92,0,0,7.49,62.3-72.78,80,0,0,78.38,23.59,42.52,86.47,5.88-.73,97.33-14.68,117.93,82.64,0,0,40.57-55.57,114-29.77C613.76,415.32,569.79,384.65,582.78,315.07Zm-53.53,49.37c-13.16,15.88-41.7,6.53-67.76-13.89s-39.81-44.07-26.61-60,45-12.2,71,8.19S542.42,348.59,529.25,364.44Z"/></g></g></g></svg>