<?xml version="1.0" encoding="utf-8"?>
<!-- Generator: Adobe Illustrator 25.4.1, SVG Export Plug-In . SVG Version: 6.00 Build 0)  -->
<svg version="1.1" id="Layer_1" xmlns="http://www.w3.org/2000/svg" xmlns:xlink="http://www.w3.org/1999/xlink" x="0px" y="0px"
	 viewBox="0 0 703.15 703.15" style="enable-background:new 0 0 703.15 703.15;" xml:space="preserve">
<style type="text/css">
	.st0{fill:#3B9158;stroke:#3B9158;stroke-miterlimit:10;}
	.st1{fill:#57CF7E;}
	.st2{fill:#3B9158;}
	.st3{fill:#5368E6;}
	.st4{fill:#283380;}
	.st5{fill:#1E2240;}
</style>
<g id="Layer_14">
</g>
<g id="Sketches">
</g>
<path class="st0" d="M396.42,175.51c-1.62-0.03-3.26-0.05-4.89-0.05c-20.41,0-40.24,2.38-59.21,6.87
	c-3.95,0.93-7.87,1.96-11.74,3.08c-4.77,1.37-9.47,2.88-14.12,4.51c-26.34,9.29-50.59,22.78-71.89,39.62
	c-1.11-27.92,1.61-56.24,9-83.36c8.44-31,22.99-60.43,44.94-85.9C329.2,76.79,367.77,121.84,396.42,175.51z"/>
<path class="st1" d="M332.32,182.33c-3.95,0.93-7.87,1.96-11.74,3.08c-0.83-14.06-2.11-28.16-3.87-42.25l0.97-0.27
	C322.96,155.83,327.85,168.98,332.32,182.33z"/>
<path class="st1" d="M306.46,189.92c-26.34,9.29-50.59,22.78-71.89,39.62c-24.08,19.02-44.37,42.34-59.63,68.74
	c-3.69,6.37-7.08,12.92-10.16,19.64c-12.46,27.15-19.84,56.95-20.97,88.29C72.53,343.42,27.99,205.34,54.68,97.4
	c50.83-4.25,125.79,14.45,188.89,48.78C266.72,158.78,288.28,173.48,306.46,189.92z"/>
<path class="st2" d="M174.94,298.28c-3.69,6.37-7.08,12.92-10.16,19.64c-0.18-0.28-0.37-0.55-0.55-0.83
	c-20.99-31.8-38.17-65.57-51.67-100.4l0.9-0.44C131.39,245.75,152,273.33,174.94,298.28z"/>
<path class="st3" d="M639.44,414.71c0,132.13-110.99,239.25-247.9,239.25c-38.49,0-74.93-8.47-107.44-23.58
	C201,591.75,143.65,509.7,143.65,414.71c0-132.13,110.99-239.25,247.88-239.25c120.25,0,220.5,82.63,243.12,192.28
	C637.8,382.92,639.44,398.64,639.44,414.71z"/>
<path class="st4" d="M639.44,414.71c0,132.13-110.99,239.25-247.9,239.25c-38.49,0-74.93-8.47-107.44-23.58
	c78.47,4.32,169.87-2.55,265.67-90.95c48.9-45.12,81.33-105.21,84.89-171.69C637.8,382.92,639.44,398.64,639.44,414.71z"/>
<path class="st5" d="M449.51,340.07c0,0-17.5-31.58,1.96-45.73s54.45,4.43,54.45,4.43s-47.37-42.45-76.12-18.04
	C407.05,300.05,449.51,340.07,449.51,340.07z"/>
<path class="st4" d="M582.78,315.07c0,0-69.93-19.56-68.76-70.17c-37.61,13.89-68.62-7.7-101.93-48.92c0,0,7.49,62.29-72.78,80
	c0,0,78.38,23.58,42.53,86.46c5.88-0.72,97.33-14.68,117.92,82.65c0,0,40.58-55.57,114-29.77
	C613.76,415.32,569.79,384.65,582.78,315.07z M529.25,364.44c-13.17,15.88-41.7,6.53-67.76-13.89
	c-26.06-20.39-39.81-44.07-26.61-59.96c13.17-15.85,44.97-12.2,71.03,8.18C531.97,319.2,542.42,348.59,529.25,364.44z"/>
<g id="Blueberry_00000176728720099460732240000016795746449119681204_">
	<g id="Layer_10">
	</g>
</g>
<g id="Layer_9">
</g>
<g id="Playful_00000013154651474959777450000012505283159267969161_">
	<g id="Base_00000083770459722858551100000011779734592053075331_">
	</g>
	<g id="Serif_00000119807557435360111430000008597907192087778694_">
	</g>
	<g id="Blueberry">
	</g>
</g>
</svg>
